<svg xmlns="http://www.w3.org/2000/svg" width="48" height="48" viewBox="0 0 48 48">
  <rect width="48" height="48" fill="#000000"/>
  <svg x="5" y="16" width="38" height="17" viewBox="380 130 500 220">
    <path d="M 612.44 337.02 C608.30,338.60 604.72,337.70 601.93,334.37 C601.07,333.34 597.39,322.60 593.75,310.50 C581.25,268.95 566.86,221.50 566.31,220.00 C565.72,218.37 565.20,219.82 556.41,247.40 C549.78,268.21 548.09,270.81 540.44,272.07 C537.72,272.52 524.81,272.91 511.75,272.94 L 488.00 273.00 L 487.98 296.75 C487.98,309.81 487.64,321.00 487.23,321.60 C485.32,324.47 481.63,325.00 463.52,325.00 C445.09,325.00 444.88,324.98 442.45,322.55 L 440.00 320.09 L 440.00 263.05 C440.00,208.04 440.07,205.93 441.93,204.07 C444.61,201.39 450.28,200.76 468.26,201.16 C481.79,201.46 484.06,201.74 485.88,203.39 C487.88,205.20 487.98,206.37 488.23,230.89 L 488.50 256.50 L 511.93 256.77 C524.82,256.92 535.75,256.65 536.22,256.18 C536.69,255.71 541.73,240.81 547.42,223.07 C553.10,205.33 558.50,190.07 559.41,189.16 C560.47,188.10 562.72,187.50 565.62,187.50 C569.27,187.50 570.61,188.01 572.39,190.08 C574.36,192.37 591.23,245.35 603.08,286.50 C604.83,292.55 606.56,297.84 606.94,298.26 C607.59,298.98 610.37,286.80 627.53,208.00 C631.67,189.02 635.89,169.68 636.91,165.00 C637.94,160.32 639.35,153.63 640.06,150.11 C641.74,141.66 644.28,138.73 649.91,138.73 C657.38,138.73 658.44,140.68 662.57,162.02 C664.53,172.18 667.41,187.02 668.96,195.00 C670.52,202.98 675.06,226.60 679.06,247.50 C683.05,268.40 686.64,285.86 687.02,286.31 C687.40,286.75 691.56,282.02 696.26,275.81 C702.91,267.01 706.21,262.32 710.73,259.82 C715.87,256.98 722.60,256.98 737.65,257.00 C738.71,257.00 739.82,257.00 740.97,257.00 C759.47,257.00 765.02,256.71 765.10,255.75 C765.15,255.06 765.27,243.60 765.35,230.28 C765.36,228.00 765.37,225.91 765.37,223.97 C765.39,211.59 765.40,206.00 768.18,203.46 C770.47,201.37 774.62,201.32 782.18,201.24 C783.61,201.22 785.17,201.20 786.87,201.17 C805.97,200.79 811.06,201.65 812.84,205.54 C814.44,209.07 814.49,316.82 812.89,320.34 C812.28,321.68 810.68,323.28 809.34,323.89 C806.25,325.30 775.85,325.36 770.84,323.97 C765.47,322.48 765.00,320.12 765.00,294.85 L 765.00 273.00 L 742.93 273.00 C730.52,273.00 720.07,273.43 719.05,273.97 C718.05,274.51 712.23,281.23 706.11,288.90 C700.00,296.58 693.81,303.79 692.37,304.93 C687.26,308.94 676.70,307.02 674.24,301.62 C673.61,300.24 671.28,289.74 669.06,278.30 C666.85,266.86 661.88,241.26 658.02,221.40 C654.16,201.55 651.00,184.56 651.00,183.65 C651.00,182.74 650.61,182.00 650.14,182.00 C649.66,182.00 648.50,185.94 647.55,190.75 C646.61,195.56 643.39,210.75 640.40,224.50 C637.41,238.25 631.13,267.50 626.45,289.50 C621.77,311.50 617.28,330.97 616.48,332.77 C615.67,334.57 613.85,336.49 612.44,337.02 ZM 842.48 299.02 C840.95,300.71 839.40,301.00 831.92,301.00 C822.58,301.00 820.58,300.14 819.45,295.66 C819.15,294.44 819.03,278.46 819.20,260.14 C819.22,257.32 819.24,254.72 819.26,252.31 C819.39,233.20 819.44,226.89 822.40,224.87 C823.86,223.88 826.02,223.92 829.25,223.98 C830.08,224.00 830.97,224.01 831.94,224.02 C836.65,224.02 841.00,224.36 841.60,224.77 C844.65,226.80 844.90,230.07 844.59,263.36 C844.31,294.09 844.12,297.21 842.48,299.02 ZM 431.78 299.44 C430.20,300.55 427.15,301.00 421.28,301.00 C420.46,301.00 419.70,301.01 418.98,301.02 C415.78,301.06 413.60,301.09 412.12,300.09 C408.95,297.96 408.96,291.12 408.99,269.70 C409.00,267.46 409.00,265.07 409.00,262.50 C409.00,259.93 409.00,257.54 408.99,255.30 C408.96,233.88 408.95,227.04 412.12,224.91 C413.60,223.91 415.78,223.94 418.98,223.98 C419.70,223.99 420.46,224.00 421.28,224.00 C427.15,224.00 430.20,224.45 431.78,225.56 L 434.00 227.11 L 434.00 297.89 ZM 403.80 264.09 L 403.50 270.50 L 399.37 270.80 C394.19,271.18 392.00,269.20 392.00,264.15 C392.00,259.00 394.33,256.00 398.31,256.02 C403.50,256.04 404.14,256.97 403.80,264.09 ZM 860.44 268.78 C858.71,271.26 853.26,271.86 851.20,269.80 C850.54,269.14 850.00,266.30 850.00,263.50 C850.00,260.70 850.54,257.86 851.20,257.20 C852.91,255.49 858.57,255.72 860.43,257.57 C862.45,259.59 862.45,265.91 860.44,268.78 Z" fill="#FFFFFF"/>
  </svg>
</svg>
